<svg xmlns:xlink="http://www.w3.org/1999/xlink" width="24" xmlns="http://www.w3.org/2000/svg" height="24" id="screenshot-2a0b805d-de78-8023-8002-f1f317ab743a" viewBox="0 0 24 24" style="-webkit-print-color-adjust: exact;" fill="none" version="1.1"><g id="shape-2a0b805d-de78-8023-8002-f1f317ab743a"><defs><clipPath class="frame-clip-def frame-clip" id="frame-clip-2a0b805d-de78-8023-8002-f1f317ab743a-rumext-id-1"><rect rx="0" ry="0" x="0" y="0" width="24" height="24" transform="matrix(1.000000, 0.000000, 0.000000, 1.000000, 0.000000, 0.000000)"/></clipPath></defs><g clip-path="url(#frame-clip-2a0b805d-de78-8023-8002-f1f317ab743a-rumext-id-1)"><clipPath class="frame-clip-def frame-clip" id="frame-clip-2a0b805d-de78-8023-8002-f1f317ab743a-rumext-id-1"><rect rx="0" ry="0" x="0" y="0" width="24" height="24" transform="matrix(1.000000, 0.000000, 0.000000, 1.000000, 0.000000, 0.000000)"/></clipPath><g class="fills" id="fills-2a0b805d-de78-8023-8002-f1f317ab743a"><rect rx="0" ry="0" x="0" y="0" transform="matrix(1.000000, 0.000000, 0.000000, 1.000000, 0.000000, 0.000000)" width="24" height="24" class="frame-background"/></g><g class="frame-children"><g id="shape-2a0b805d-de78-8023-8002-f1f38567a273" width="24" class="icon icon-tabler icon-tabler-paper-bag" height="24" rx="0" ry="0" style="fill: rgb(0, 0, 0);"><g id="shape-2a0b805d-de78-8023-8002-f1f38567a275"><g class="fills" id="fills-2a0b805d-de78-8023-8002-f1f38567a275"><path fill="none" stroke="none" stroke-linecap="round" stroke-linejoin="round" rx="0" ry="0" d="M-2.000,-2.000L26.000,-2.000L26.000,26.000L-2.000,26.000Z" style="fill: none;"/></g><g id="strokes-2a0b805d-de78-8023-8002-f1f38567a275" class="strokes"><g class="stroke-shape"><path stroke="none" stroke-linecap="round" stroke-linejoin="round" rx="0" ry="0" d="M-2.000,-2.000L26.000,-2.000L26.000,26.000L-2.000,26.000Z" style="fill: none; stroke-width: 2;"/></g></g></g><g id="shape-2a0b805d-de78-8023-8002-f1f38567a276"><g class="fills" id="fills-2a0b805d-de78-8023-8002-f1f38567a276"><path fill="none" stroke-linecap="round" stroke-linejoin="round" rx="0" ry="0" d="M7.333,1.500L16.667,1.500C17.955,1.500,19.000,2.545,19.000,3.833L19.000,5.957C19.000,6.862,19.211,7.755,19.616,8.565L20.717,10.768C21.122,11.578,21.333,12.471,21.333,13.377L21.333,20.167C21.333,21.455,20.289,22.500,19.000,22.500L5.000,22.500C3.711,22.500,2.667,21.455,2.667,20.167L2.667,13.377C2.667,12.471,2.878,11.578,3.283,10.768L5.000,7.333L5.000,3.833C5.000,2.545,6.045,1.500,7.333,1.500ZZ" style="fill: none;"/></g><g id="strokes-2a0b805d-de78-8023-8002-f1f38567a276" class="strokes"><g class="stroke-shape"><path stroke-linecap="round" stroke-linejoin="round" rx="0" ry="0" d="M7.333,1.500L16.667,1.500C17.955,1.500,19.000,2.545,19.000,3.833L19.000,5.957C19.000,6.862,19.211,7.755,19.616,8.565L20.717,10.768C21.122,11.578,21.333,12.471,21.333,13.377L21.333,20.167C21.333,21.455,20.289,22.500,19.000,22.500L5.000,22.500C3.711,22.500,2.667,21.455,2.667,20.167L2.667,13.377C2.667,12.471,2.878,11.578,3.283,10.768L5.000,7.333L5.000,3.833C5.000,2.545,6.045,1.500,7.333,1.500ZZ" style="fill: none; stroke-width: 2; stroke: rgb(75, 129, 80); stroke-opacity: 1;"/></g></g></g><g id="shape-2a0b805d-de78-8023-8002-f1f38567a277"><g class="fills" id="fills-2a0b805d-de78-8023-8002-f1f38567a277"><path fill="none" stroke-linecap="round" stroke-linejoin="round" rx="0" ry="0" d="M14.333,15.500M12.000,15.500C12.000,16.789,13.045,17.833,14.333,17.833C15.622,17.833,16.667,16.789,16.667,15.500C16.667,14.211,15.622,13.167,14.333,13.167C13.045,13.167,12.000,14.211,12.000,15.500Z" style="fill: none;"/></g><g id="strokes-2a0b805d-de78-8023-8002-f1f38567a277" class="strokes"><g class="stroke-shape"><path stroke-linecap="round" stroke-linejoin="round" rx="0" ry="0" d="M14.333,15.500M12.000,15.500C12.000,16.789,13.045,17.833,14.333,17.833C15.622,17.833,16.667,16.789,16.667,15.500C16.667,14.211,15.622,13.167,14.333,13.167C13.045,13.167,12.000,14.211,12.000,15.500Z" style="fill: none; stroke-width: 2; stroke: rgb(75, 129, 80);"/></g></g></g><g id="shape-2a0b805d-de78-8023-8002-f1f38567a278"><g class="fills" id="fills-2a0b805d-de78-8023-8002-f1f38567a278"><path fill="none" stroke-linecap="round" stroke-linejoin="round" rx="0" ry="0" d="M5.000,22.500C6.289,22.500,7.333,21.455,7.333,20.167L7.333,13.377C7.333,12.471,7.122,11.578,6.717,10.768L5.000,7.333" style="fill: none;"/></g><g id="strokes-2a0b805d-de78-8023-8002-f1f38567a278" class="strokes"><g class="stroke-shape"><path stroke-linecap="round" stroke-linejoin="round" rx="0" ry="0" d="M5.000,22.500C6.289,22.500,7.333,21.455,7.333,20.167L7.333,13.377C7.333,12.471,7.122,11.578,6.717,10.768L5.000,7.333" style="fill: none; stroke-width: 2; stroke: rgb(75, 129, 80); stroke-opacity: 1;"/></g></g></g><g id="shape-2a0b805d-de78-8023-8002-f1f38567a279"><g class="fills" id="fills-2a0b805d-de78-8023-8002-f1f38567a279"><path fill="none" stroke-linecap="round" stroke-linejoin="round" rx="0" ry="0" d="M10.833,6.167L13.167,6.167" style="fill: none;"/></g><g id="strokes-2a0b805d-de78-8023-8002-f1f38567a279" class="strokes"><g class="stroke-shape"><path stroke-linecap="round" stroke-linejoin="round" rx="0" ry="0" d="M10.833,6.167L13.167,6.167" style="fill: none; stroke-width: 2; stroke: rgb(75, 129, 80);"/></g></g></g></g></g></g></g></svg>